<svg width="34" height="48" viewBox="0 0 34 48" fill="none" xmlns="http://www.w3.org/2000/svg">
<path d="M4.15854 30.443L4.71113 17.7334H17.0892C17.8628 24.475 19.189 32.3218 19.7416 33.8691C20.1837 35.1069 20.1468 38.1056 19.9626 38.8424L19.7723 39.5055C20.4577 39.3186 20.9985 39.042 21.2889 38.8424C22.394 38.1793 24.3477 35.3058 24.6044 33.5375C25.4001 28.0558 26.2133 25.6446 26.4832 25.0276C27.2568 23.2593 29.2462 22.4857 30.0198 22.3752C32.2302 22.1541 33.0038 24.4018 33.0038 25.2486C33.0038 27.238 32.4144 27.3853 32.1196 27.238L30.0198 25.9117C28.5831 25.1381 28.1041 26.5749 28.0305 27.1274C27.8536 28.2768 27.441 32.1008 27.2568 33.8691C26.8148 37.8477 24.6044 40.5001 23.4992 41.1633C21.9684 42.0563 20.3591 42.4056 18.9493 42.4743C18.4913 44.752 17.2543 46.6159 16.6471 47.0207C16.3155 47.2418 16.205 47.2418 15.7629 47.0207C14.7904 46.5786 14.2157 44.8472 13.9947 44.0367L13.193 40.5001C12.4959 39.7129 12.0005 38.8263 11.7843 38.2728C11.3814 39.1648 10.5373 42.2352 10.237 44.0367C9.97179 45.6282 9.46341 46.4681 9.24237 46.6892C8.62347 47.3965 8.02667 47.4628 7.69512 46.9102C4.86585 40.7212 3.9375 36.853 3.9375 35.6373C3.9375 33.9796 4.1217 31.1061 4.15854 30.443Z" />
<path d="M11.7843 38.2728C11.3814 39.1648 10.5373 42.2352 10.237 44.0367C9.97179 45.6282 9.46341 46.4681 9.24237 46.6892C8.62347 47.3965 8.02667 47.4628 7.69512 46.9102C4.86585 40.7212 3.9375 36.853 3.9375 35.6373C3.9375 33.9796 4.1217 31.1061 4.15854 30.443L4.71113 17.7334H17.0892C17.8628 24.475 19.189 32.3218 19.7416 33.8691C20.1837 35.1069 20.1468 38.1056 19.9626 38.8424L19.7723 39.5055M11.7843 38.2728L11.5633 37.6267M11.7843 38.2728C12.0005 38.8263 12.4959 39.7129 13.193 40.5001M13.4421 36.5215C13.9947 37.4056 15.5419 39.2623 17.3102 39.616C18.2073 39.7954 19.0665 39.698 19.7723 39.5055M13.193 40.5001C13.8022 41.188 14.5655 41.8 15.4314 42.0474C16.7944 42.5263 20.3163 43.02 23.4992 41.1633C24.6044 40.5001 26.8148 37.8477 27.2568 33.8691C27.441 32.1008 27.8536 28.2768 28.0305 27.1274C28.1041 26.5749 28.5831 25.1381 30.0198 25.9117L32.1196 27.238C32.4144 27.3853 33.0038 27.238 33.0038 25.2486C33.0038 24.4018 32.2302 22.1541 30.0198 22.3752C29.2462 22.4857 27.2568 23.2593 26.4832 25.0276C26.2133 25.6446 25.4001 28.0558 24.6044 33.5375C24.3477 35.3058 22.394 38.1793 21.2889 38.8424C20.9985 39.042 20.4577 39.3186 19.7723 39.5055M13.193 40.5001L13.9947 44.0367C14.2157 44.8472 14.7904 46.5786 15.7629 47.0207C16.205 47.2418 16.3155 47.2418 16.6471 47.0207C17.2627 46.6103 18.5259 44.6998 18.968 42.379" stroke="black" stroke-width="0.1"/>
<path d="M1.05582 2.37157C0.790581 3.60938 1.53474 6.35023 1.93997 7.56593L3.37614 10.992C3.59718 10.3289 4.54763 9.04687 6.1391 7.89748L5.03391 3.80831C4.59184 2.15053 4.11293 1.37691 3.7077 1.15587C3.04459 0.794173 1.32107 1.13377 1.05582 2.37157Z" stroke="black" stroke-width="0.1"/>
<path d="M22.2731 2.26088C22.5384 3.49869 20.5054 7.12367 20.0623 8.25505L18.7361 11.4339C18.5151 10.7708 18.0067 9.93085 16.4152 8.78146L18.073 4.8028C18.6256 3.25555 19.5476 1.37674 19.9529 1.15571C20.616 0.794009 22.0079 1.02308 22.2731 2.26088Z"  stroke="black" stroke-width="0.1"/>
<path d="M11.6529 6.01839C10.5035 5.66473 9.25835 5.87104 8.77944 6.01839C7.71859 6.37205 7.01109 7.19725 6.78994 7.56564C5.86901 7.93404 3.87241 9.17921 3.25341 11.2127C2.63442 13.2463 3.73236 15.1546 4.35871 15.8545C3.47456 17.3576 3.76928 19.4279 4.02715 20.2752C6.06069 20.7173 7.37954 19.5753 7.78477 18.949C10.8793 19.3911 13.2738 18.8734 14.0843 18.5593C15.8748 19.7844 17.9235 20.0067 18.8366 19.9437C18.8366 18.529 18.0998 16.4071 17.7314 15.523C18.6156 14.9041 18.8366 13.0547 18.8366 12.2074C18.5713 9.55497 15.7052 8.22875 14.3053 7.8972C13.3328 6.74781 12.1318 6.16575 11.6529 6.01839Z" />
<path d="M13.2002 17.8438C13.4828 18.1137 13.7798 18.351 14.0843 18.5593M14.0843 18.5593C15.8748 19.7844 17.9235 20.0067 18.8366 19.9437C18.8366 18.529 18.0998 16.4071 17.7314 15.523C18.6156 14.9041 18.8366 13.0547 18.8366 12.2074C18.5713 9.55497 15.7052 8.22875 14.3053 7.8972C13.3328 6.74781 12.1318 6.16575 11.6529 6.01839C10.5035 5.66473 9.25835 5.87104 8.77943 6.01839C7.71859 6.37205 7.01109 7.19725 6.78994 7.56564C5.86901 7.93404 3.87241 9.17921 3.25341 11.2127C2.63442 13.2463 3.73236 15.1546 4.35871 15.8545C3.47456 17.3576 3.76928 19.4279 4.02715 20.2752C6.06069 20.7173 7.37954 19.5753 7.78477 18.949M14.0843 18.5593C13.2738 18.8734 10.8793 19.3911 7.78477 18.949M7.78477 18.949L8.66892 18.0649" stroke="black" stroke-width="0.1"/>
<circle cx="13.3175" cy="9.88654" r="1.93933" fill="white" stroke="black" stroke-width="0.1"/>
<path d="M14.6469 9.77609C14.6469 10.5696 14.0037 11.2128 13.2102 11.2128C12.4167 11.2128 11.7734 10.5696 11.7734 9.77609C11.7734 8.9826 12.4167 8.33936 13.2102 8.33936C14.0037 8.33936 14.6469 8.9826 14.6469 9.77609Z" fill="url(#paint0_radial_486_62)"/>
<circle cx="1.98933" cy="1.98933" r="1.93933" transform="matrix(-1 0 0 1 9.99219 7.89722)" fill="white" stroke="black" stroke-width="0.1"/>
<circle cx="1.43674" cy="1.43674" r="1.43674" transform="matrix(-1 0 0 1 9.54688 8.33936)" fill="url(#paint1_radial_486_62)"/>
<path d="M10.4771 7.28333L10.0039 6.46376L10.9502 6.46376L10.4771 7.28333Z" fill="#EC4899"/>
<path d="M11.1953 7.03625C11.3661 6.98919 11.7872 6.97272 12.1059 7.28332" stroke="black" stroke-width="0.1"/>
<path d="M11.2891 6.67199C11.4598 6.62493 11.881 6.60846 12.1997 6.91906" stroke="black" stroke-width="0.1"/>
<path d="M9.64844 6.67199C9.4777 6.62493 9.05653 6.60846 8.73781 6.91906" stroke="black" stroke-width="0.1"/>
<path d="M9.74219 7.03625C9.57145 6.98919 9.15028 6.97272 8.83156 7.28332" stroke="black" stroke-width="0.1"/>
<defs>
<radialGradient id="paint0_radial_486_62" cx="0" cy="0" r="1" gradientUnits="userSpaceOnUse" gradientTransform="translate(13.2102 9.77609) rotate(90) scale(1.43674)">
<stop stop-color="#3EA600"/>
<stop offset="0.655" stop-color="#31511E"/>
<stop offset="1" stop-color="#F7F701"/>
</radialGradient>
<radialGradient id="paint1_radial_486_62" cx="0" cy="0" r="1" gradientUnits="userSpaceOnUse" gradientTransform="translate(1.43674 1.43674) rotate(-90) scale(1.43674)">
<stop stop-color="#3EA600"/>
<stop offset="0.655" stop-color="#31511E"/>
<stop offset="1" stop-color="#F7F701"/>
</radialGradient>
</defs>
</svg>
