<svg width="40" height="40" viewBox="0 0 40 40" fill="none" xmlns="http://www.w3.org/2000/svg">
<g clip-path="url(#clip0_367_18)">
<mask id="mask0_367_18" style="mask-type:alpha" maskUnits="userSpaceOnUse" x="0" y="0" width="40" height="40">
<path d="M20 40C31.0457 40 40 31.0457 40 20C40 8.9543 31.0457 0 20 0C8.9543 0 0 8.9543 0 20C0 31.0457 8.9543 40 20 40Z" fill="black"/>
</mask>
<g mask="url(#mask0_367_18)">
<path d="M19.9974 39.3333C30.6749 39.3333 39.3307 30.6775 39.3307 20C39.3307 9.32249 30.6749 0.666656 19.9974 0.666656C9.31989 0.666656 0.664062 9.32249 0.664062 20C0.664062 30.6775 9.31989 39.3333 19.9974 39.3333Z" fill="white" stroke="white" stroke-width="6"/>
<path d="M33.224 35.0044L15.3649 12H12V27.9933H14.6919V15.4186L31.1109 36.6322C31.8518 36.1364 32.5576 35.5922 33.224 35.0044Z" fill="url(#paint0_linear_367_18)"/>
<path d="M28.2214 12H25.5547V28H28.2214V12Z" fill="url(#paint1_linear_367_18)"/>
</g>
</g>
<defs>
<linearGradient id="paint0_linear_367_18" x1="24.2222" y1="25.8889" x2="32.1111" y2="35.6667" gradientUnits="userSpaceOnUse">
<stop/>
<stop offset="1" stop-opacity="0"/>
</linearGradient>
<linearGradient id="paint1_linear_367_18" x1="26.888" y1="12" x2="26.8434" y2="23.75" gradientUnits="userSpaceOnUse">
<stop/>
<stop offset="1" stop-opacity="0"/>
</linearGradient>
<clipPath id="clip0_367_18">
<rect width="40" height="40" fill="white"/>
</clipPath>
</defs>
</svg>
