<svg width="34" height="34" viewBox="0 0 34 34" fill="none" xmlns="http://www.w3.org/2000/svg">
<g clip-path="url(#clip0_224_152)">
<mask id="mask0_224_152" style="mask-type:alpha" maskUnits="userSpaceOnUse" x="0" y="0" width="34" height="34">
<path d="M17 34C26.3888 34 34 26.3888 34 17C34 7.61116 26.3888 0 17 0C7.61116 0 0 7.61116 0 17C0 26.3888 7.61116 34 17 34Z" fill="black"/>
</mask>
<g mask="url(#mask0_224_152)">
<path d="M17.0036 33.4333C26.0795 33.4333 33.437 26.0759 33.437 17C33.437 7.92414 26.0795 0.566681 17.0036 0.566681C7.92777 0.566681 0.570312 7.92414 0.570312 17C0.570312 26.0759 7.92777 33.4333 17.0036 33.4333Z" fill="black" stroke="black" stroke-width="6"/>
<path d="M28.2435 29.7538L13.0633 10.2H10.2031V23.7943H12.4912V13.1058L26.4474 31.1374C27.0771 30.716 27.677 30.2534 28.2435 29.7538Z" fill="url(#paint0_linear_224_152)"/>
<path d="M23.9932 10.2H21.7266V23.8H23.9932V10.2Z" fill="url(#paint1_linear_224_152)"/>
</g>
</g>
<defs>
<linearGradient id="paint0_linear_224_152" x1="20.592" y1="22.0056" x2="27.2976" y2="30.3167" gradientUnits="userSpaceOnUse">
<stop stop-color="white"/>
<stop offset="1" stop-color="white" stop-opacity="0"/>
</linearGradient>
<linearGradient id="paint1_linear_224_152" x1="22.8599" y1="10.2" x2="22.8219" y2="20.1875" gradientUnits="userSpaceOnUse">
<stop stop-color="white"/>
<stop offset="1" stop-color="white" stop-opacity="0"/>
</linearGradient>
<clipPath id="clip0_224_152">
<rect width="34" height="34" fill="white"/>
</clipPath>
</defs>
</svg>
