<svg width="110" height="80" viewBox="0 0 110 80" fill="none" xmlns="http://www.w3.org/2000/svg">
<path d="M0 77.2817V47.3798C19.5975 54.3388 27.501 44.4802 29.0031 38.681C30.2494 34.7955 29.5224 24.3523 29.0031 19.6164L42 24.002C48.5 34.7949 49.5 41.8626 49.9179 47.3436L51.9484 24.5094L58.9484 17.4417C59.9484 20.1601 64.9484 35.9266 68.9484 47.3436C72.1484 56.4773 77.9484 57.3109 80.4484 56.586C86.4484 55.2812 85.9484 49.1559 84.9484 46.2563C81.7484 40.1672 75.2818 43.7192 72.4484 46.2563C61.6484 3.1976 92.7818 -2.13039 108.448 0.587967V30.4899C88.8509 23.5309 78.4474 33.3894 76.9453 39.1886C84.2471 35.2742 92.3231 35.3829 95.4484 35.9266C112.248 42.4506 111.115 58.942 108.448 66.3721C105.648 78.1154 92.6151 80.3263 86.4484 79.9639C74.8484 80.3988 66.6151 62.7476 63.9484 53.8677C61.4421 42.4219 58.2815 34.6472 55.6965 29.9019L54 53.3602L47 60.4279C46 57.7095 44.5 39.1886 36.5 29.9019C47 72.3082 15.6667 80 0 77.2817Z" fill="white"/>
</svg>
