<svg width="110" height="74" viewBox="0 0 110 74" fill="none" xmlns="http://www.w3.org/2000/svg">
<path d="M0 71.074V43.574C19.5975 49.974 27.501 40.9073 29.0031 35.5739C30.2494 32.0005 29.5224 22.3962 29.0031 18.0407L42 22.074C44.3993 32.1512 47.3983 39.1341 49.9179 43.5407L51.9484 22.5407L58.9484 16.0407C59.9484 18.5407 64.9484 33.0407 68.9484 43.5407C72.1484 51.9407 77.9484 52.7074 80.4484 52.0407C86.4484 50.8407 85.9484 45.2074 84.9484 42.5407C81.7484 36.9407 75.2818 40.2074 72.4484 42.5407C61.6484 2.94074 90.2818 -1.95926 105.948 0.540738V28.0407C86.3509 21.6407 78.4474 30.7074 76.9453 36.0407C84.2471 32.4408 92.3231 32.5408 95.4484 33.0408C112.248 39.0408 111.115 54.2074 108.448 61.0408C105.648 71.8408 92.6151 73.8741 86.4484 73.5407C74.8484 73.9407 66.6151 57.7074 63.9484 49.5407C61.4421 39.0143 58.2815 31.8642 55.6965 27.5L54 49.074L47 55.574C46.0055 53.0876 41.0545 38.7321 37.0657 28.2464C47.8657 67.8464 15.6667 73.574 0 71.074Z" fill="#D9D9D9"/>
</svg>
