<svg width="21" height="24" viewBox="0 0 21 24" fill="none" xmlns="http://www.w3.org/2000/svg">
<path d="M20.4024 8.89281C19.9626 11.2372 18.1578 12.9845 15.8053 13.3423C14.4257 13.5545 14.1063 14.7028 14.0399 15.0502C13.9756 15.3976 13.8552 16.5854 15.0626 17.2843L17.4151 18.6468C17.8321 20.2069 18.2387 21.7276 18.6598 23.3085L13.3594 20.2403C11.2995 19.0483 10.2518 16.7622 10.6937 14.4178C11.1335 12.0734 12.9383 10.3281 15.2908 9.96827C16.6704 9.7561 16.9898 8.60782 17.0562 8.26043C17.1205 7.91303 17.2408 6.72525 16.0335 6.02424L13.681 4.66171C13.2661 3.10781 12.8512 1.5539 12.4363 0L17.7366 3.06828C19.7967 4.26023 20.8443 6.54635 20.4024 8.89072V8.89281Z" fill="url(#paint0_linear_311_40)"/>
<path d="M0.0992489 8.89268C0.539045 11.237 2.34387 12.9844 4.69637 13.3422C6.07593 13.5544 6.39542 14.7026 6.46177 15.05C6.52609 15.3974 6.64641 16.5852 5.43905 17.2842L3.08655 18.6467C2.66957 20.2069 2.26297 21.7274 1.84184 23.3084L7.14222 20.2401C9.20223 19.0482 10.2498 16.762 9.80797 14.4177C9.36817 12.0733 7.56333 10.328 5.21084 9.96814C3.8313 9.75596 3.51182 8.60769 3.44544 8.26029C3.38113 7.91289 3.26081 6.72512 4.46817 6.0241L6.82065 4.66158C7.23559 3.10976 7.65047 1.55585 8.06536 0.00195312L2.765 3.07023C0.705005 4.26426 -0.340548 6.54831 0.0992489 8.89268Z" fill="url(#paint1_linear_311_40)"/>
<path d="M7.75699 5.24199L7.78395 6.6378C7.78599 6.7543 7.67398 6.83957 7.56196 6.8042L6.01647 6.31536C5.89406 6.27586 5.77374 6.38195 5.8007 6.50881C6.29029 8.86154 7.38981 10.715 10.2547 10.715C13.1196 10.715 14.0967 9.03417 14.6962 6.52549C14.7273 6.39649 14.6028 6.28418 14.4763 6.32786L13.0926 6.8063C12.9889 6.84166 12.8789 6.77303 12.8686 6.66276L12.7088 5.21076C12.6943 5.07559 12.5367 5.01109 12.4329 5.09636L11.348 5.97837C11.265 6.04496 11.1426 6.02205 11.0907 5.92847L10.4082 4.68658C10.3418 4.56593 10.1676 4.57009 10.1074 4.69282L9.49125 5.92847C9.44355 6.02205 9.32323 6.05119 9.23817 5.99087L8.02251 5.10468C7.9084 5.0215 7.74869 5.10468 7.75282 5.24617L7.75699 5.24199Z" fill="url(#paint2_linear_311_40)"/>
<defs>
<linearGradient id="paint0_linear_311_40" x1="15.5481" y1="0" x2="15.5481" y2="23.3085" gradientUnits="userSpaceOnUse">
<stop stop-color="#83C949"/>
<stop offset="1" stop-color="#A24502"/>
</linearGradient>
<linearGradient id="paint1_linear_311_40" x1="4.95397" y1="0.00195312" x2="4.95397" y2="23.3084" gradientUnits="userSpaceOnUse">
<stop stop-color="#83C949"/>
<stop offset="1" stop-color="#A24502"/>
</linearGradient>
<linearGradient id="paint2_linear_311_40" x1="10.249" y1="4.59839" x2="10.249" y2="10.715" gradientUnits="userSpaceOnUse">
<stop stop-color="#83C949"/>
<stop offset="1" stop-color="#A24502"/>
</linearGradient>
</defs>
</svg>
