<svg xmlns="http://www.w3.org/2000/svg" version="1.1" xmlns:xlink="http://www.w3.org/1999/xlink" xmlns:svgjs="http://svgjs.dev/svgjs" width="130" height="130"><svg width="130" height="130" viewBox="0 0 130 130" fill="none" xmlns="http://www.w3.org/2000/svg">
<path d="M10 102.282V72.3798C29.5975 79.3388 37.501 69.4802 39.0031 63.681C40.2494 59.7955 39.5224 49.3523 39.0031 44.6164L52 49.002C58.5 59.7949 59.5 66.8626 59.9179 72.3436L61.9484 49.5094L68.9484 42.4417C69.9484 45.1601 74.9484 60.9266 78.9484 72.3436C82.1484 81.4773 87.9484 82.3109 90.4484 81.586C96.4484 80.2812 95.9484 74.1559 94.9484 71.2563C91.7484 65.1672 85.2818 68.7192 82.4484 71.2563C71.6484 28.1976 102.782 22.8696 118.448 25.588V55.4899C98.8509 48.5309 88.4474 58.3894 86.9453 64.1886C94.2471 60.2742 102.323 60.3829 105.448 60.9266C122.248 67.4506 121.115 83.942 118.448 91.3721C115.648 103.115 102.615 105.326 96.4484 104.964C84.8484 105.399 76.6151 87.7476 73.9484 78.8677C71.4421 67.4219 68.2815 59.6472 65.6965 54.9019L64 78.3602L57 85.4279C56 82.7095 54.5 64.1886 46.5 54.9019C57 97.3082 25.6667 105 10 102.282Z" fill="white"></path>
</svg>
<style>
     @media (prefers-color-scheme: light) {
     path { fill: #121212 }
     }
</style>
</svg>